<svg width="30" height="41" viewBox="0 0 30 41" fill="none" xmlns="http://www.w3.org/2000/svg">
<path d="M2.87702 -8.34465e-07C3.6126 -8.34465e-07 4.34855 0.265067 4.90913 0.7952L22.1578 17.0809C23.2807 18.1412 23.2807 19.8588 22.1578 20.9191L4.90913 37.2048C3.78617 38.2651 1.96697 38.2651 0.844016 37.2048C-0.278944 36.1445 -0.278944 34.4269 0.844016 33.3666L16.0606 19L0.842219 4.63125C-0.28074 3.57098 -0.28074 1.85335 0.842219 0.793082C1.4037 0.262948 2.14036 -8.34465e-07 2.87702 -8.34465e-07Z" fill="#2074C8"/>
<path d="M14.4102 37.9805C13.9414 37.9805 13.707 37.7852 13.707 37.3945V36.2227C13.707 35.832 13.9414 35.6367 14.4102 35.6367H27.6523C28.1211 35.6367 28.3555 35.832 28.3555 36.2227V37.3945C28.3555 37.7852 28.1211 37.9805 27.6523 37.9805H14.4102Z" fill="#2074C8"/>
</svg>
